<?xml version="1.0" standalone="no"?>
<!DOCTYPE svg PUBLIC "-//W3C//DTD SVG 20010904//EN"
 "http://www.w3.org/TR/2001/REC-SVG-20010904/DTD/svg10.dtd">
<svg version="1.0" xmlns="http://www.w3.org/2000/svg"
 width="512.000000pt" height="512.000000pt" viewBox="0 0 512.000000 512.000000"
 preserveAspectRatio="xMidYMid meet">

<g transform="translate(0.000000,512.000000) scale(0.100000,-0.100000)"
fill="#000000" stroke="none">
<path d="M3254 5110 c-136 -25 -271 -85 -378 -167 -78 -60 -78 -65 -21 -123
27 -27 53 -50 58 -50 5 0 37 21 70 46 126 95 246 134 406 134 156 0 275 -41
404 -139 l65 -49 57 58 56 57 -38 34 c-141 127 -319 197 -518 204 -60 2 -133
0 -161 -5z"/>
<path d="M632 4924 c-29 -14 -64 -40 -77 -58 -56 -73 -55 -67 -55 -574 l0
-468 28 -55 c31 -63 95 -115 150 -124 64 -11 62 -8 62 -97 0 -105 14 -154 54
-194 45 -45 89 -54 279 -54 l167 0 0 -574 0 -573 -75 -6 c-55 -4 -88 -13 -126
-33 -90 -49 -128 -120 -129 -240 l0 -71 -52 9 c-29 6 -136 8 -238 6 -183 -3
-186 -4 -239 -33 -29 -16 -64 -43 -77 -60 -56 -74 -54 -45 -54 -817 0 -696 1
-714 21 -758 25 -55 62 -95 114 -123 38 -21 53 -22 275 -22 222 0 237 1 275
22 43 23 81 59 111 108 16 24 20 55 24 195 l5 165 1485 0 1485 0 5 -165 c4
-140 8 -171 24 -195 30 -49 68 -85 111 -108 38 -21 53 -22 275 -22 222 0 237
1 275 22 52 28 89 68 114 123 20 44 21 62 21 758 0 772 2 743 -54 817 -13 17
-48 44 -77 60 -53 29 -56 30 -239 33 -102 2 -209 0 -237 -6 l-53 -9 0 71 c-1
171 -91 263 -265 274 l-83 5 -32 126 c-17 69 -35 143 -41 164 l-10 37 -74 0
-75 0 0 410 0 409 158 3 157 3 41 160 40 160 52 3 52 3 0 85 0 84 -330 0 -330
0 0 165 0 165 -85 0 -85 0 0 -165 0 -165 -330 0 -331 0 3 -82 3 -83 50 -3 51
-3 40 -162 40 -162 157 -3 157 -3 0 -409 0 -410 -74 0 -74 0 -11 -47 c-7 -27
-17 -66 -23 -88 l-10 -40 -44 88 -44 87 -565 0 -565 0 0 410 0 410 168 0 c183
0 226 7 273 47 47 40 59 79 59 187 l0 96 28 6 c68 15 98 29 138 66 79 73 79
70 79 593 0 421 -2 464 -18 507 -22 56 -92 123 -146 138 -23 6 -329 10 -832
10 l-795 0 -52 -26z m438 -299 l0 -165 -205 0 -205 0 0 128 c0 200 3 202 243
202 l167 0 0 -165z m1212 137 l23 -23 3 -431 c2 -304 -1 -440 -9 -460 -6 -15
-24 -31 -41 -37 -20 -7 -190 -11 -484 -11 l-454 0 0 85 0 86 -82 -3 -83 -3 -3
-82 -3 -83 -79 0 -80 0 0 85 0 86 -82 -3 -83 -3 -3 -82 -3 -83 -49 0 c-37 0
-56 6 -77 24 l-28 24 -3 221 -3 221 213 0 c117 0 229 5 248 10 41 11 94 61
109 103 6 16 11 106 11 208 l0 180 510 -3 509 -3 23 -23z m-222 -1212 l0 -80
-575 0 -575 0 0 80 0 80 575 0 575 0 0 -80z m1790 73 c0 -5 -7 -41 -17 -81
l-17 -72 -430 2 -430 3 -18 70 c-9 39 -18 73 -18 78 0 4 209 7 465 7 256 0
465 -3 465 -7z m-2280 -1029 c0 -517 -3 -711 -12 -727 -28 -53 -89 -63 -129
-21 l-24 26 -3 714 -3 714 86 0 85 0 0 -706z m1900 296 l0 -410 -80 0 -80 0 0
410 0 410 80 0 80 0 0 -410z m-673 -660 l42 -80 -555 0 -554 0 0 80 0 80 513
0 512 0 42 -80z m875 5 c9 -38 18 -73 18 -77 0 -5 -138 -8 -306 -8 -286 0
-305 1 -300 18 3 9 10 37 16 62 6 25 13 53 16 63 5 16 24 17 272 15 l266 -3
18 -70z m-2431 -333 c3 -66 9 -86 34 -127 88 -142 272 -163 387 -45 53 55 68
96 68 188 l0 62 1129 0 c1126 0 1128 0 1155 -21 l26 -20 0 -475 0 -475 -51 3
-51 3 -93 245 -93 245 -1190 3 -1190 2 -36 -92 c-19 -51 -62 -163 -94 -248
l-59 -155 -57 -3 -57 -3 3 471 3 472 28 24 c22 19 39 24 81 24 l54 0 3 -78z
m-362 -276 c17 -15 21 -31 21 -78 l0 -58 -80 0 -80 0 0 -85 0 -85 80 0 80 0 0
-80 0 -80 -80 0 -80 0 0 -85 0 -85 80 0 80 0 0 -80 0 -80 -80 0 -80 0 0 -85 0
-85 80 0 80 0 0 -80 0 -80 -80 0 -80 0 0 -85 0 -85 80 0 80 0 0 -57 c0 -44 -5
-62 -22 -80 -21 -22 -26 -23 -213 -23 -179 0 -194 1 -219 21 -23 18 -26 28
-26 80 l0 59 80 0 80 0 0 85 0 85 -80 0 -80 0 0 80 0 80 80 0 80 0 0 85 0 85
-80 0 -80 0 0 80 0 80 80 0 80 0 0 85 0 85 -80 0 -80 0 0 80 0 80 80 0 80 0 0
85 0 85 -80 0 -80 0 0 51 c0 58 12 86 43 99 12 5 106 8 208 7 168 -2 189 -4
208 -21z m3802 -5 c13 -16 19 -39 19 -77 l0 -54 -80 0 -80 0 0 -85 0 -85 80 0
80 0 0 -80 0 -80 -80 0 -80 0 0 -85 0 -85 80 0 80 0 0 -80 0 -80 -80 0 -80 0
0 -85 0 -85 80 0 80 0 0 -80 0 -80 -80 0 -80 0 0 -85 0 -85 80 0 80 0 0 -59
c0 -52 -3 -62 -26 -80 -25 -20 -40 -21 -217 -21 -182 0 -192 1 -214 22 -19 18
-23 32 -23 80 l0 58 80 0 80 0 0 85 0 85 -80 0 -80 0 0 80 0 80 80 0 80 0 0
85 0 85 -80 0 -80 0 0 80 0 80 80 0 80 0 0 85 0 85 -80 0 -80 0 0 80 0 80 80
0 80 0 0 85 0 85 -80 0 -80 0 0 58 c0 59 11 80 50 95 8 3 100 5 203 4 185 -2
189 -2 208 -26z m-2951 -466 l0 -165 -186 0 c-102 0 -184 4 -182 8 2 5 30 79
63 165 l59 157 123 0 123 0 0 -165z m330 0 l0 -165 -80 0 -80 0 0 165 0 165
80 0 80 0 0 -165z m580 0 l0 -165 -205 0 -205 0 0 165 0 165 205 0 205 0 0
-165z m330 0 l0 -165 -80 0 -80 0 0 165 0 165 80 0 80 0 0 -165z m330 0 l0
-165 -80 0 -80 0 0 165 0 165 80 0 80 0 0 -165z m369 78 c18 -49 46 -123 62
-165 l28 -78 -144 0 -145 0 0 165 0 165 83 0 83 0 33 -87z m371 -493 l0 -80
-1480 0 -1480 0 0 80 0 80 1480 0 1480 0 0 -80z"/>
<path d="M1650 4700 c-208 -44 -358 -259 -323 -465 31 -182 161 -314 343 -347
215 -40 432 117 471 341 34 190 -85 391 -270 456 -53 18 -166 26 -221 15z
m165 -177 c102 -34 174 -148 162 -254 -20 -167 -193 -266 -342 -195 -279 132
-112 549 180 449z"/>
<path d="M1650 4295 l0 -85 85 0 85 0 0 85 0 85 -85 0 -85 0 0 -85z"/>
<path d="M2890 1735 l0 -85 85 0 86 0 -3 83 -3 82 -82 3 -83 3 0 -86z"/>
<path d="M3220 1735 l0 -85 85 0 86 0 -3 83 -3 82 -82 3 -83 3 0 -86z"/>
<path d="M3550 1735 l0 -85 85 0 85 0 0 85 0 85 -85 0 -85 0 0 -85z"/>
<path d="M3315 4784 c-86 -13 -216 -75 -260 -124 -19 -21 -19 -21 37 -76 l55
-56 54 34 c30 19 73 40 95 46 92 27 207 7 284 -49 l43 -31 55 55 c50 50 54 57
41 73 -25 31 -129 93 -183 108 -57 17 -173 27 -221 20z"/>
<path d="M3302 4378 l3 -83 83 -3 82 -3 0 86 0 85 -85 0 -86 0 3 -82z"/>
</g>
</svg>
